<svg id="Capa_1" data-name="Capa 1" xmlns="http://www.w3.org/2000/svg" viewBox="0 0 1920 1080"><defs><style>.cls-1{fill:#f7edd7;}.cls-2{fill:#c2e6e1;}</style></defs><title>background</title><rect class="cls-1" width="1920" height="1080" transform="translate(1920 1080) rotate(-180)"/><path class="cls-2" d="M56.74,377.38c101.5-14.61,201.17-37,298.23-63.29,46.77-12.68,93.06-26.35,139-40.61l9.86-3.09,15.34-4.87q16.52-5.26,33-10.61,34.22-11.08,68.29-22.41c96-31.84,191.75-64.23,288.76-94.43C1089.3,82,1276.84,38.42,1465.16,0H0V384.73Q28.46,381.42,56.74,377.38Z"/><path class="cls-2" d="M1907,706.59q-62.71,20.1-123.22,43.72C1630.91,809.86,1489,883.75,1352.37,961.89c-66.84,38.56-132.54,78.19-197.92,118.11H1920V702.65Q1913.49,704.6,1907,706.59Z"/><path class="cls-2" d="M1613.44,380.31q-85.18,4.49-170.13,11-42.52,3.27-85,7.09-11.89,1.07-23.78,2.18l-10.06,1c-7.65.7-.18,0,2.77-.3-12.7,1-25.4,2.72-38,4.19-218,25.36-429.19,74.29-644.41,109.34C433.21,549.23,216.54,565.3,0,567.22V794.63c29.16-8.48,58.52-16.5,87.77-24.31,82.76-22.08,171-44.79,259.59-47.82,44.86-1.53,96.6,7.6,120.88,38.65,22.11,28.25,15.92,61.12-5.72,88.36-15.6,19.62-37.47,36-58,52.75-50.76,41.42-111.94,76.29-173.31,108.51-46.46,24.4-94.58,47-142.92,69.23H574c99.08-72.53,215.39-132.78,330-190,152.28-75.94,315.14-139.84,483.18-194.17C1558,640.66,1733.59,594.25,1912.79,556.4l7.21-1.51V370Q1766.58,372.46,1613.44,380.31Z"/></svg>