<svg id="Capa_1" data-name="Capa 1" xmlns="http://www.w3.org/2000/svg" viewBox="0 0 25 25"><defs><style>.cls-1{fill:#34332f;}</style></defs><title>Mesa de trabajo 10</title><path class="cls-1" d="M12.5,1A11.5,11.5,0,1,0,24,12.5,11.51,11.51,0,0,0,12.5,1Zm0,20A8.5,8.5,0,1,1,21,12.5,8.51,8.51,0,0,1,12.5,21Z"/><path class="cls-1" d="M16.27,8.73a1.51,1.51,0,0,0-2.12,0L12.5,10.38,10.85,8.73a1.5,1.5,0,1,0-2.12,2.12l1.65,1.65L8.73,14.15a1.51,1.51,0,0,0,0,2.12,1.53,1.53,0,0,0,1.06.44,1.49,1.49,0,0,0,1.06-.44l1.65-1.65,1.65,1.65a1.49,1.49,0,0,0,1.06.44,1.53,1.53,0,0,0,1.06-.44,1.51,1.51,0,0,0,0-2.12L14.62,12.5l1.65-1.65A1.51,1.51,0,0,0,16.27,8.73Z"/></svg>