<svg id="Capa_1" data-name="Capa 1" xmlns="http://www.w3.org/2000/svg" viewBox="0 0 90 90"><defs><style>.cls-1{fill:none;}.cls-2{fill:#34332f;}.cls-3{fill:#f0eadc;}</style></defs><title>mycomputer</title><rect class="cls-1" width="90" height="90"/><path class="cls-2" d="M87.17,50.38l0-.09A1.11,1.11,0,0,0,87,50,.25.25,0,0,0,87,50a1.23,1.23,0,0,0-.23-.28l-.06-.05a1.38,1.38,0,0,0-.25-.17l0,0,0,0a2.06,2.06,0,0,0-.35-.12h0l-.25,0H82.85V8A5,5,0,0,0,77.9,3H27.08a4.94,4.94,0,0,0-3,1L24,4.1l-6.1,4.5a5.22,5.22,0,0,0-1.12.86,1.43,1.43,0,0,0-.2.23,5,5,0,0,0-1.2,3.2v41.4a4.69,4.69,0,0,0,.06.54l-2.31,1.71a.12.12,0,0,0,0,.05.8.8,0,0,0-.17.15l-.07.09a.94.94,0,0,0-.12.18l-.06.1c0,.07-.05.14-.08.22s0,.05,0,.08a1.24,1.24,0,0,0,0,.33V71.08L3.42,80.91a1.54,1.54,0,0,0-.4,1v3.55a1.15,1.15,0,0,0,.06.37.29.29,0,0,0,0,.09,1.69,1.69,0,0,0,.12.27.25.25,0,0,1,0,.07,1.56,1.56,0,0,0,.23.28l.06,0a1.38,1.38,0,0,0,.25.17l.05,0h0l.22.08.09,0a1.65,1.65,0,0,0,.32,0H66.75a1.48,1.48,0,0,0,.42-.07l.08,0a1.3,1.3,0,0,0,.37-.19h0l9.48-7,9.49-7a1.5,1.5,0,0,0,.61-1.2V50.75A1.5,1.5,0,0,0,87.17,50.38ZM6,84V82.52l8.64-9.36H72.81l-7.16,7.75a1.49,1.49,0,0,0-.4,1v2ZM18.37,54.29V12.89a2,2,0,0,1,.48-1.27l.73-.53a1.85,1.85,0,0,1,.74-.15H71.15a2,2,0,0,1,1.95,2v41.4a2,2,0,0,1-1.95,2H20.32A2,2,0,0,1,18.37,54.29ZM15.51,70.16V59.24H74.74V70.16Z"/><path class="cls-3" d="M20.32,56.24H71.15a2,2,0,0,0,1.95-2V12.89a2,2,0,0,0-1.95-2H20.32a1.85,1.85,0,0,0-.74.15l-.73.53a2,2,0,0,0-.48,1.27v41.4A2,2,0,0,0,20.32,56.24Zm3.92-41.31h43a1.5,1.5,0,0,1,1.5,1.5V50.75a1.5,1.5,0,0,1-1.5,1.5h-43a1.5,1.5,0,0,1-1.5-1.5V16.43A1.5,1.5,0,0,1,24.24,14.93Z"/><path class="cls-3" d="M65.73,49.25V17.93h-40V49.25h40ZM60.64,36.93a1.5,1.5,0,0,1-1.5,1.5H54v5.19a1.5,1.5,0,0,1-1.5,1.5H32.33a1.5,1.5,0,0,1-1.5-1.5V32.28a3.53,3.53,0,0,1,3.53-3.53h3.09V25.59A3.53,3.53,0,0,1,41,22.06H57.11a3.53,3.53,0,0,1,3.53,3.53Z"/><path class="cls-2" d="M22.74,50.75a1.5,1.5,0,0,0,1.5,1.5h43a1.5,1.5,0,0,0,1.5-1.5V16.43a1.5,1.5,0,0,0-1.5-1.5h-43a1.5,1.5,0,0,0-1.5,1.5Zm3-32.82h40V49.25h-40Z"/><path class="cls-3" d="M74.74,59.24H15.51V70.16H74.74ZM22.5,66.12H20.66a1.5,1.5,0,0,1,0-3H22.5a1.5,1.5,0,0,1,0,3Zm46.57,0H56.58a1.5,1.5,0,0,1,0-3H69.07a1.5,1.5,0,0,1,0,3Z"/><path class="cls-3" d="M57.64,35.43V25.59a.53.53,0,0,0-.53-.53H41a.53.53,0,0,0-.53.53v3.16h10A3.53,3.53,0,0,1,54,32.28v3.15Z"/><path class="cls-2" d="M57.11,22.06H41a3.53,3.53,0,0,0-3.53,3.53v3.16H34.36a3.53,3.53,0,0,0-3.53,3.53V43.62a1.5,1.5,0,0,0,1.5,1.5H52.52a1.5,1.5,0,0,0,1.5-1.5V38.43h5.12a1.5,1.5,0,0,0,1.5-1.5V25.59A3.53,3.53,0,0,0,57.11,22.06ZM33.83,42.12V32.28a.53.53,0,0,1,.53-.53H50.49a.52.52,0,0,1,.53.53v9.84ZM50.49,28.75h-10V25.59a.53.53,0,0,1,.53-.53H57.11a.53.53,0,0,1,.53.53v9.84H54V32.28A3.53,3.53,0,0,0,50.49,28.75Z"/><path class="cls-3" d="M51,32.28a.52.52,0,0,0-.53-.53H34.36a.53.53,0,0,0-.53.53v9.84H51Z"/><path class="cls-3" d="M65.25,84v-2a1.49,1.49,0,0,1,.4-1l7.16-7.75H14.66L6,82.52V84Z"/><path class="cls-2" d="M69.07,63.12H56.58a1.5,1.5,0,0,0,0,3H69.07a1.5,1.5,0,0,0,0-3Z"/><path class="cls-2" d="M22.5,63.12H20.66a1.5,1.5,0,0,0,0,3H22.5a1.5,1.5,0,0,0,0-3Z"/></svg>